<svg width="345" height="45" viewBox="0 0 345 45" fill="none" xmlns="http://www.w3.org/2000/svg">
<g style="mix-blend-mode:luminosity">
<path d="M316.04 0H329.182V1.60766H323.509V8.05096H321.72V1.60766H316.04V0Z" fill="#1A1A1A"/>
<path d="M345 0V8.05096H343.211V2.44947L337.934 7.81044L332.65 2.44947V8.05096H330.861V0H332.567L337.934 5.39262L343.294 0H345Z" fill="#1A1A1A"/>
<path d="M0 0H26.5205C32.0406 0 34.1873 2.62036 34.1873 6.00657C34.2315 7.07058 33.9605 8.12416 33.4076 9.03741C32.8547 9.95066 32.0442 10.6837 31.0758 11.146C34.4875 11.9752 35.8612 14.2664 35.8612 17.0197C35.8612 20.4375 33.6506 23.2225 27.9261 23.2225H0V0ZM24.8147 5.63947H6.26117V9.08898H24.7891C27.3447 9.08898 27.7728 8.22818 27.7728 7.36739C27.7728 6.50659 27.3575 5.63947 24.8147 5.63947ZM6.26117 14.1335V17.583H26.1947C28.7503 17.583 29.14 16.7222 29.14 15.8551C29.14 14.9879 28.7503 14.1335 26.1947 14.1335H6.26117Z" fill="#1A1A1A"/>
<path d="M74.9159 19.5704H52.8868L50.0693 23.2225H42.3706L60.6174 0H67.2492L85.4641 23.2225H77.7654L74.9159 19.5704ZM56.8032 14.5069H70.9995L63.8886 5.34199L56.8032 14.5069Z" fill="#1A1A1A"/>
<path d="M93.3811 0H118.362C125.562 0 128.476 3.48115 128.476 7.76614C128.476 11.646 126.131 14.8297 120.509 15.4563L132.494 23.2225H122.214L111.13 15.6589H99.6678V23.2541H93.4067L93.3811 0ZM99.6678 5.63947V10.2156H118.119C121.314 10.2156 121.952 9.1586 121.952 7.9307C121.952 6.7028 121.314 5.63947 118.119 5.63947H99.6678Z" fill="#1A1A1A"/>
<path d="M170.849 18.7413H144.527L140.847 23.2225H136.758L155.893 0H159.477L178.644 23.2225H174.561L170.849 18.7413ZM146.769 16.0196H168.607L157.688 2.78492L146.769 16.0196Z" fill="#1A1A1A"/>
<path d="M187.101 0H212.177C218.809 0 221.422 3.21532 221.422 7.16485C221.422 11.1144 218.809 14.3297 212.177 14.3297H209.865L225.575 23.1908H219.946L204.677 14.3677H190.391V23.2225H187.082L187.101 0ZM190.391 2.98746V11.5131H212.024C216.496 11.5131 217.953 9.61431 217.953 7.23447C217.953 4.85463 216.509 2.98746 212.024 2.98746H190.391Z" fill="#1A1A1A"/>
<path d="M230.134 0H267.695V2.98746H250.566V23.2414H247.25V2.98746H230.134V0Z" fill="#1A1A1A"/>
<path d="M276.502 20.254H302.198C306.076 20.254 307.182 18.5957 307.182 16.6399C307.182 14.6841 306.076 12.9879 302.198 12.9879H283.53C277.467 12.9879 275.16 10.1713 275.16 6.51925C275.16 2.86721 277.467 0 283.53 0H309.347V2.98746H283.594C279.76 2.98746 278.604 4.6774 278.604 6.63318C278.604 8.58896 279.747 10.2536 283.594 10.2536H302.313C308.344 10.2536 310.683 13.0702 310.683 16.7538C310.683 20.3363 308.344 23.2225 302.313 23.2225H276.502V20.254Z" fill="#1A1A1A"/>
<path d="M225.804 35.9697C229.541 35.9697 232.608 36.8432 232.608 40.2737C232.608 42.1725 231.004 44.584 226.161 44.584H219.913V35.9697H225.804ZM221.255 36.9065V43.5397H225.989C229.771 43.5397 231.234 41.932 231.234 40.2357C231.234 37.7863 229.043 36.9065 225.804 36.9065H221.255Z" fill="#666666"/>
<path d="M239.539 44.584H238.217V35.9697H239.539V44.584Z" fill="#666666"/>
<path d="M256.88 37.8345C255.221 37.0303 253.392 36.631 251.546 36.6699C248.69 36.6699 246.53 38.0118 246.53 40.2713C246.53 42.5309 248.556 43.8791 251.469 43.8791C253.686 43.8791 255.43 43.4044 256.095 42.9487V41.0498H252.498V40.1447H257.417V43.5626C256.631 44.1196 254.632 44.8285 251.392 44.8285C247.891 44.8285 245.157 43.1575 245.157 40.2397C245.157 37.3219 248.089 35.6572 251.546 35.6572C254.261 35.6572 256.74 36.3598 257.526 36.8471L256.88 37.8345Z" fill="#666666"/>
<path d="M264.504 44.584H263.182V35.9697H264.504V44.584Z" fill="#666666"/>
<path d="M280.289 37.0077H275.472V44.603H274.149V37.0077H269.37V35.9697H280.289V37.0077Z" fill="#666666"/>
<path d="M295.838 44.5855H294.292L292.816 42.4082H285.583L284.12 44.5918H282.683L288.375 35.9775H290.056L295.838 44.5855ZM286.075 41.4967H292.305L289.161 36.9333L286.075 41.4967Z" fill="#666666"/>
<path d="M301.834 43.489H310.682V44.584H300.492V35.9697H301.834V43.489Z" fill="#666666"/>
</g>
</svg>
